<svg xmlns="http://www.w3.org/2000/svg" viewBox="0 0 180 40" role="img" aria-label="PostgreSQL">
  <rect width="180" height="40" rx="10" fill="none"/>
  <g transform="translate(7 6)">
    <path d="M16.9 1.4c5.2 0 8.8 3.4 8.8 8.5v8.6c0 3.1-2.3 5.4-5.6 5.4h-1.5c-1.1 0-1.8.5-2.2 1.6l-.7 1.8c-.3.8-.9 1.2-1.8 1.2h-2.4l1.4-3.6c.3-.8.1-1.3-.7-1.6l-2.2-.8c-3.8-1.4-6-4.3-6-8V9.9C4 4.8 8 1.4 13.7 1.4h3.2zm-3.3 3.5c-3.7 0-6 2-6 5v4.5c0 2.7 1.3 4.5 3.8 5.5l2.6 1c1.7.6 2.4 1.7 2.1 3.2l1.3-3.3c.5-1.3 1.5-2 3.1-2h.5c1.5 0 2.4-.9 2.4-2.4V9.9c0-3.1-2.2-5-5.8-5h-3.9z" fill="#336791"/>
    <circle cx="12.8" cy="11.3" r="1.45" fill="#336791"/>
  </g>
  <text x="42" y="25.5" font-family="Segoe UI, Arial, sans-serif" font-size="18" font-weight="700" fill="#336791">PostgreSQL</text>
</svg>
