<svg xmlns="http://www.w3.org/2000/svg" viewBox="0 0 150 40" role="img" aria-label="MySQL">
  <rect width="150" height="40" rx="10" fill="none"/>
  <g transform="translate(8 8)">
    <path d="M4 20c2-5.7 5.4-10 10-12.9 1.1-.7 2.2-1.3 3.4-1.7.5-.2 1 .3.8.8l-.5 1.2c2.4-.9 5-.8 7.3.3 2 1 3.7 2.6 4.7 4.6.3.6-.1 1.2-.8 1.2h-1.9c.5 1.2.5 2.4.1 3.6-.8 2.3-2.8 4.1-5.2 4.7l-1.2.3.8 1.4c.3.6-.1 1.3-.8 1.3-2.2 0-4.2-.7-5.9-2l-1.2-.9-1.1 1.7c-.4.6-1.2.5-1.5-.1L9 20.7l-3.7.8c-.8.2-1.5-.6-1.3-1.5z" fill="#00758f"/>
    <path d="M9.6 17.8c1.5-3.8 4-6.7 7.6-8.8 3.4-2 6.7-2.4 9.7-1.1-2.5-.1-5.1.5-7.5 1.9-3.6 2.1-6 4.9-7.5 8.4l-2.3-.4z" fill="#f29111"/>
  </g>
  <text x="44" y="25.5" font-family="Segoe UI, Arial, sans-serif" font-size="20" font-style="italic" font-weight="700" fill="#00758f">MySQL</text>
</svg>
