<svg xmlns="http://www.w3.org/2000/svg" viewBox="0 0 174 40" role="img" aria-label="Microsoft SQL Server">
  <rect width="174" height="40" rx="10" fill="none"/>
  <g transform="translate(8 6)">
    <path d="M17 2.5c2 3.4 4.5 5.3 8.9 6.9 4.5 1.7 7.3 3.4 8.8 6.1 1.4 2.6 1.5 5.6-.2 8.8-1.7-2.6-4.2-4.3-8.4-5.9-4.9-1.9-8-3.6-9.8-6.2-1.8-2.7-1.7-5.9.7-9.7z" fill="#d83b01"/>
    <path d="M8.1 6.3c2.1 2.1 4.7 3.6 8 4.8-2.8.4-5 1.4-6.6 2.9-2.2 2.1-3.2 4.8-2.9 8C3.8 19 2.5 15.7 3.5 12.5 4.1 10.1 5.7 8.1 8.1 6.3z" fill="#f25022"/>
  </g>
  <text x="46" y="17" font-family="Segoe UI, Arial, sans-serif" font-size="8.5" font-weight="700" letter-spacing="1.2" fill="#a3acba">MICROSOFT</text>
  <text x="46" y="28" font-family="Segoe UI, Arial, sans-serif" font-size="14" font-weight="700" fill="#d83b01">SQL Server</text>
</svg>
